<svg xmlns="http://www.w3.org/2000/svg" xmlns:xlink="http://www.w3.org/1999/xlink" version="1.1" x="0px" y="0px" viewBox="0 0 100 125" style="enable-background:new 0 0 100 100;" xml:space="preserve"><g transform="translate(-893 35)"><g><path d="M914.2-29.7c-1.4,0-3,0.5-4.6,2.1l-5.5,5.5c-4,4.1-6,8.8-5.7,14.1c0.7,15.5,19.3,31.2,19.5,31.4l16.7,16.7    c0.2,0.3,15.9,18.9,31.5,19.6C971.3,60,976,58,980.1,54l5.5-5.5c4.7-4.7,0.2-9.4,0-9.6l-11.1-11.1c-0.2-0.2-4.9-4.7-9.6,0    l-2.8,2.8c-7.2,7.2-16.8,1.3-20.9-2.8l-11.1-11.1c-4.1-4.1-9.9-13.7-2.8-20.9l2.8-2.8c4.7-4.7,0.2-9.4,0-9.6l-11.1-11.1    C919-27.7,916.9-29.7,914.2-29.7z"/></g></g><text x="0" y="115" fill="#000000" font-size="5px" font-weight="bold" font-family="'Helvetica Neue', Helvetica, Arial-Unicode, Arial, Sans-serif">Created by Noah</text><text x="0" y="120" fill="#000000" font-size="5px" font-weight="bold" font-family="'Helvetica Neue', Helvetica, Arial-Unicode, Arial, Sans-serif">from the Noun Project</text></svg>